<?xml version="1.0" encoding="UTF-8"?>
<svg width="800px" height="800px" viewBox="0 0 64 64" version="1.1" xmlns="http://www.w3.org/2000/svg">
    <g stroke="none" stroke-width="1" fill="none" fill-rule="evenodd">
        <circle cx="32" cy="32" r="24" stroke="#4A4A4A" stroke-width="2"/>
        <path d="M32,16 C28,16 24,20 24,24 C24,28 28,32 32,32 C36,32 40,28 40,24 C40,20 36,16 32,16 Z" fill="#FF6B6B"/>
        <path d="M32,32 C28,32 24,36 24,40 C24,44 28,48 32,48 C36,48 40,44 40,40 C40,36 36,32 32,32 Z" fill="#FF6B6B"/>
        <path d="M24,24 C24,28 28,32 32,32" stroke="#4A4A4A" stroke-width="2"/>
        <path d="M32,32 C36,32 40,28 40,24" stroke="#4A4A4A" stroke-width="2"/>
        <path d="M24,40 C24,44 28,48 32,48" stroke="#4A4A4A" stroke-width="2"/>
        <path d="M32,48 C36,48 40,44 40,40" stroke="#4A4A4A" stroke-width="2"/>
    </g>
</svg>
